<?xml version="1.0" encoding="UTF-8" standalone="no"?>
<!DOCTYPE svg PUBLIC "-//W3C//DTD SVG 1.1//EN"
 "http://www.w3.org/Graphics/SVG/1.1/DTD/svg11.dtd">
<!-- Generated by graphviz version 2.38.0 (20140413.2041)
 -->
<!-- Title: models_diagram Pages: 1 -->
<svg width="482pt" height="246pt"
 viewBox="0.00 0.00 481.55 246.00" xmlns="http://www.w3.org/2000/svg" xmlns:xlink="http://www.w3.org/1999/xlink">
<g id="graph0" class="graph" transform="scale(1 1) rotate(0) translate(4 242)">
<title>models_diagram</title>
<polygon fill="none" stroke="none" points="-4,4 -4,-242 477.55,-242 477.55,4 -4,4"/>
<!-- _diagram_info -->
<g id="node1" class="node"><title>_diagram_info</title>
<text text-anchor="start" x="8" y="-216.6" font-family="Times,serif" font-size="13.00">Models diagram</text>
<text text-anchor="start" x="8" y="-203.6" font-family="Times,serif" font-size="13.00">Date: Jul 15 2016 &#45; 19:09</text>
<text text-anchor="start" x="8" y="-190.6" font-family="Times,serif" font-size="13.00">Migration version: 20160715230743</text>
<text text-anchor="start" x="8" y="-177.6" font-family="Times,serif" font-size="13.00">Generated by RailRoady 1.5.1</text>
<text text-anchor="start" x="8" y="-164.6" font-family="Times,serif" font-size="13.00">http://railroady.prestonlee.com</text>
</g>
<!-- Category -->
<g id="node2" class="node"><title>Category</title>
<path fill="none" stroke="black" d="M237.825,-151.5C237.825,-151.5 461.55,-151.5 461.55,-151.5 467.55,-151.5 473.55,-157.5 473.55,-163.5 473.55,-163.5 473.55,-225.5 473.55,-225.5 473.55,-231.5 467.55,-237.5 461.55,-237.5 461.55,-237.5 237.825,-237.5 237.825,-237.5 231.825,-237.5 225.825,-231.5 225.825,-225.5 225.825,-225.5 225.825,-163.5 225.825,-163.5 225.825,-157.5 231.825,-151.5 237.825,-151.5"/>
<text text-anchor="middle" x="349.688" y="-222.3" font-family="Times,serif" font-size="14.00">Category</text>
<polyline fill="none" stroke="black" points="225.825,-215.5 473.55,-215.5 "/>
<text text-anchor="start" x="233.825" y="-200.3" font-family="Times,serif" font-size="14.00">id :integer</text>
<text text-anchor="start" x="233.825" y="-186.3" font-family="Times,serif" font-size="14.00">name :character varying</text>
<text text-anchor="start" x="233.825" y="-172.3" font-family="Times,serif" font-size="14.00">created_at :timestamp without time zone</text>
<text text-anchor="start" x="233.825" y="-158.3" font-family="Times,serif" font-size="14.00">updated_at :timestamp without time zone</text>
</g>
<!-- Product -->
<g id="node3" class="node"><title>Product</title>
<path fill="none" stroke="black" d="M237.825,-0.5C237.825,-0.5 461.55,-0.5 461.55,-0.5 467.55,-0.5 473.55,-6.5 473.55,-12.5 473.55,-12.5 473.55,-102.5 473.55,-102.5 473.55,-108.5 467.55,-114.5 461.55,-114.5 461.55,-114.5 237.825,-114.5 237.825,-114.5 231.825,-114.5 225.825,-108.5 225.825,-102.5 225.825,-102.5 225.825,-12.5 225.825,-12.5 225.825,-6.5 231.825,-0.5 237.825,-0.5"/>
<text text-anchor="middle" x="349.688" y="-99.3" font-family="Times,serif" font-size="14.00">Product</text>
<polyline fill="none" stroke="black" points="225.825,-92.5 473.55,-92.5 "/>
<text text-anchor="start" x="233.825" y="-77.3" font-family="Times,serif" font-size="14.00">id :integer</text>
<text text-anchor="start" x="233.825" y="-63.3" font-family="Times,serif" font-size="14.00">name :character varying</text>
<text text-anchor="start" x="233.825" y="-49.3" font-family="Times,serif" font-size="14.00">price :integer</text>
<text text-anchor="start" x="233.825" y="-35.3" font-family="Times,serif" font-size="14.00">category_id :integer</text>
<text text-anchor="start" x="233.825" y="-21.3" font-family="Times,serif" font-size="14.00">created_at :timestamp without time zone</text>
<text text-anchor="start" x="233.825" y="-7.3" font-family="Times,serif" font-size="14.00">updated_at :timestamp without time zone</text>
</g>
<!-- Category&#45;&gt;Product -->
<g id="edge1" class="edge"><title>Category&#45;&gt;Product</title>
<path fill="none" stroke="#565f9f" d="M349.688,-143.113C349.688,-137.149 349.688,-130.994 349.688,-124.852"/>
<ellipse fill="none" stroke="#565f9f" cx="349.688" cy="-147.156" rx="4" ry="4"/>
<polygon fill="#565f9f" stroke="#565f9f" points="349.688,-124.563 354.188,-114.563 349.688,-119.563 349.688,-114.563 349.688,-114.563 349.688,-114.563 349.688,-119.563 345.188,-114.563 349.688,-124.563 349.688,-124.563"/>
</g>
</g>
</svg>
